<svg viewBox="0 0 640 400" data-background-color="#000000" preserveAspectRatio="xMidYMid meet" height="400" width="640" xmlns="http://www.w3.org/2000/svg" xmlns:xlink="http://www.w3.org/1999/xlink"><rect width="640" height="400" x="0" y="0" opacity="1" fill="#000000" data-fill-palette-color="background" id="background"></rect><g id="tight-bounds" transform="matrix(1,0,0,1,122.24000000000001,135.23666930160618)"><svg viewBox="0 0 395.52 129.5266613967876" height="129.5266613967876" width="395.52"><g><svg viewBox="0 0 733.4458132904256 240.19212052730697" height="129.5266613967876" width="395.52"><g></g><g transform="matrix(1,0,0,1,337.9258132904256,33.19587193973635)"><svg viewBox="0 0 395.52000000000004 173.80037664783427" height="173.80037664783427" width="395.52000000000004"><g id="textblocktransform"><svg viewBox="0 0 395.52000000000004 173.80037664783427" height="173.80037664783427" width="395.52000000000004" id="textblock"><g><svg viewBox="0 0 395.52000000000004 173.80037664783427" height="173.80037664783427" width="395.52000000000004"><g transform="matrix(1,0,0,1,0,0)"><svg width="395.52000000000004" viewBox="4.349999904632568 -34.95000076293945 79.6500015258789 35" height="173.80037664783427" data-palette-color="url(#485d0ab4-2977-4dc6-a23d-a4908fc31431)"></svg></g></svg></g></svg></g></svg></g><g><svg viewBox="0 0 240.19212052730697 240.19212052730697" height="240.19212052730697" width="240.19212052730697"><g><svg xmlns="http://www.w3.org/2000/svg" xmlns:xlink="http://www.w3.org/1999/xlink" version="1.1" x="0" y="0" viewBox="5 5 90 90" enable-background="new 0 0 100 100" xml:space="preserve" height="240.19212052730697" width="240.19212052730697" class="icon-icon-0" data-fill-palette-color="accent" id="icon-0"></svg></g></svg></g></svg></g><defs></defs><mask id="2fc2a9d5-608d-4c27-8f92-226b16c13926"><g id="SvgjsG1169"><svg viewBox="0 0 395.52 129.5266613967876" height="129.5266613967876" width="395.52"><g><svg viewBox="0 0 733.4458132904256 240.19212052730697" height="129.5266613967876" width="395.52"><g><rect width="15.673497328090395" height="208.56045197740113" x="281.2222182448211" y="15.81583427495292" fill="white" opacity="1" stroke-width="0" stroke="transparent" fill-opacity="1" class="rect-borderrectangle-0" rx="1%" id="SvgjsRect1168" data-palette-color="url(#485d0ab4-2977-4dc6-a23d-a4908fc31431)"></rect></g><g transform="matrix(1,0,0,1,337.9258132904256,33.19587193973635)"><svg viewBox="0 0 395.52000000000004 173.80037664783427" height="173.80037664783427" width="395.52000000000004"><g id="SvgjsG1167"><svg viewBox="0 0 395.52000000000004 173.80037664783427" height="173.80037664783427" width="395.52000000000004" id="SvgjsSvg1166"><g><svg viewBox="0 0 395.52000000000004 173.80037664783427" height="173.80037664783427" width="395.52000000000004"><g transform="matrix(1,0,0,1,0,0)"><svg width="395.52000000000004" viewBox="4.349999904632568 -34.95000076293945 79.6500015258789 35" height="173.80037664783427" data-palette-color="url(#485d0ab4-2977-4dc6-a23d-a4908fc31431)"><path d="M16.25-34.95L16.25-34.95Q20.25-34.95 22.7-34.08 25.15-33.2 26.28-31.05 27.4-28.9 27.4-25L27.4-25Q27.4-22.2 26.75-20.33 26.1-18.45 24.73-17.43 23.35-16.4 21.05-16.1L21.05-16.1 21.05-15.85Q21.9-15.65 22.73-15.03 23.55-14.4 24.25-13.38 24.95-12.35 25.3-10.9L25.3-10.9 28.65 0 23.95 0 20.9-10.8Q20.25-12.75 19.15-13.58 18.05-14.4 16.3-14.4L16.3-14.4Q13.25-14.4 11-14.43 8.75-14.45 7.25-14.5 5.75-14.55 4.85-14.55L4.85-14.55 5-18.2 16.15-18.2Q18.7-18.25 20.18-18.8 21.65-19.35 22.3-20.78 22.95-22.2 22.95-24.75L22.95-24.75Q22.95-27.3 22.3-28.68 21.65-30.05 20.18-30.6 18.7-31.15 16.15-31.15L16.15-31.15Q12.05-31.15 9.08-31.1 6.1-31.05 5.05-31.05L5.05-31.05 4.35-34.5Q6.25-34.7 7.9-34.8 9.55-34.9 11.53-34.93 13.5-34.95 16.25-34.95ZM4.35-34.5L8.7-34.5 8.7 0 4.35 0 4.35-34.5ZM42.65-34.5L47.05-34.5 47.05 0 42.65 0 42.65-34.5ZM31.55-34.5L58.2-34.5 58.2-30.6 31.55-30.6 31.55-34.5ZM63.65-34.5L68-34.5 68-7Q68-5.3 68.82-4.5 69.65-3.7 71.34-3.7L71.34-3.7 83.8-3.7 84-0.3Q80.75-0.05 77.37 0 74 0.05 70.65 0.05L70.65 0.05Q66.84 0.05 65.25-1.8 63.65-3.65 63.65-6.45L63.65-6.45 63.65-34.5Z" opacity="1" transform="matrix(1,0,0,1,0,0)" fill="white" class="wordmark-text-0" id="SvgjsPath1165"></path></svg></g></svg></g></svg></g></svg></g><g><svg viewBox="0 0 240.19212052730697 240.19212052730697" height="240.19212052730697" width="240.19212052730697"><g><svg xmlns="http://www.w3.org/2000/svg" xmlns:xlink="http://www.w3.org/1999/xlink" version="1.1" x="0" y="0" viewBox="5 5 90 90" enable-background="new 0 0 100 100" xml:space="preserve" height="240.19212052730697" width="240.19212052730697" class="icon-icon-0" data-fill-palette-color="accent" id="SvgjsSvg1164"><path fill="black" d="M95 52c0-12.871-5.692-24.431-14.682-32.318C72.431 10.692 60.871 5 48 5 24.29 5 5 24.29 5 48c0 12.868 5.69 24.426 14.677 32.313C27.564 89.306 39.126 95 52 95c0.084 0 0.166-0.006 0.25-0.006S52.416 95 52.5 95C75.972 95 95 75.972 95 52.5c0-0.084-0.006-0.166-0.006-0.25S95 52.084 95 52zM21.828 73.371c-4.245-5.978-6.77-13.259-6.822-21.121 0.135-20.511 16.732-37.109 37.244-37.244 7.862 0.052 15.144 2.577 21.121 6.822C80.224 28.473 84.5 37.758 84.5 48c0 20.126-16.374 36.5-36.5 36.5C37.758 84.5 28.473 80.224 21.828 73.371zM6 48C6 24.841 24.841 6 48 6c9.858 0 18.926 3.422 26.1 9.13C67.637 11.242 60.076 9 52 9 28.29 9 9 28.29 9 52c0 8.074 2.241 15.633 6.127 22.095C9.421 66.923 6 57.856 6 48zM52 89c-10.08 0-19.227-4.055-25.905-10.615C32.269 82.854 39.838 85.5 48 85.5c20.678 0 37.5-16.822 37.5-37.5 0-8.162-2.646-15.731-7.115-21.905C84.945 32.773 89 41.92 89 52 89 72.402 72.402 89 52 89z"></path></svg></g></svg></g></svg></g><defs><mask></mask></defs></svg><rect width="395.52" height="129.5266613967876" fill="black" stroke="none" visibility="hidden"></rect></g></mask><linearGradient x1="0" x2="1" y1="0.548" y2="0.55" id="485d0ab4-2977-4dc6-a23d-a4908fc31431"><stop stop-color="#ff6cab" offset="0"></stop><stop stop-color="#7366ff" offset="1"></stop></linearGradient><rect width="395.5199890136719" height="129.5266571044922" fill="url(#485d0ab4-2977-4dc6-a23d-a4908fc31431)" mask="url(#2fc2a9d5-608d-4c27-8f92-226b16c13926)" data-fill-palette-color="primary"></rect><mask id="235ec3ef-7502-420a-9055-168f4d875b82"><g id="SvgjsG1190"><svg viewBox="0 0 395.52 129.5266613967876" height="129.5266613967876" width="395.52"><g><svg viewBox="0 0 733.4458132904256 240.19212052730697" height="129.5266613967876" width="395.52"><g></g><g transform="matrix(1,0,0,1,337.9258132904256,33.19587193973635)"><svg viewBox="0 0 395.52000000000004 173.80037664783427" height="173.80037664783427" width="395.52000000000004"><g id="SvgjsG1189"><svg viewBox="0 0 395.52000000000004 173.80037664783427" height="173.80037664783427" width="395.52000000000004" id="SvgjsSvg1188"><g><svg viewBox="0 0 395.52000000000004 173.80037664783427" height="173.80037664783427" width="395.52000000000004"><g transform="matrix(1,0,0,1,0,0)"><svg width="395.52000000000004" viewBox="4.349999904632568 -34.95000076293945 79.6500015258789 35" height="173.80037664783427" data-palette-color="url(#485d0ab4-2977-4dc6-a23d-a4908fc31431)"></svg></g></svg></g></svg></g></svg></g><g><svg viewBox="0 0 240.19212052730697 240.19212052730697" height="240.19212052730697" width="240.19212052730697"><g><svg xmlns="http://www.w3.org/2000/svg" xmlns:xlink="http://www.w3.org/1999/xlink" version="1.1" x="0" y="0" viewBox="5 5 90 90" enable-background="new 0 0 100 100" xml:space="preserve" height="240.19212052730697" width="240.19212052730697" class="icon-icon-0" data-fill-palette-color="accent" id="SvgjsSvg1187"><path fill="white" d="M95 52c0-12.871-5.692-24.431-14.682-32.318C72.431 10.692 60.871 5 48 5 24.29 5 5 24.29 5 48c0 12.868 5.69 24.426 14.677 32.313C27.564 89.306 39.126 95 52 95c0.084 0 0.166-0.006 0.25-0.006S52.416 95 52.5 95C75.972 95 95 75.972 95 52.5c0-0.084-0.006-0.166-0.006-0.25S95 52.084 95 52zM21.828 73.371c-4.245-5.978-6.77-13.259-6.822-21.121 0.135-20.511 16.732-37.109 37.244-37.244 7.862 0.052 15.144 2.577 21.121 6.822C80.224 28.473 84.5 37.758 84.5 48c0 20.126-16.374 36.5-36.5 36.5C37.758 84.5 28.473 80.224 21.828 73.371zM6 48C6 24.841 24.841 6 48 6c9.858 0 18.926 3.422 26.1 9.13C67.637 11.242 60.076 9 52 9 28.29 9 9 28.29 9 52c0 8.074 2.241 15.633 6.127 22.095C9.421 66.923 6 57.856 6 48zM52 89c-10.08 0-19.227-4.055-25.905-10.615C32.269 82.854 39.838 85.5 48 85.5c20.678 0 37.5-16.822 37.5-37.5 0-8.162-2.646-15.731-7.115-21.905C84.945 32.773 89 41.92 89 52 89 72.402 72.402 89 52 89z"></path></svg></g></svg></g></svg></g><defs><mask></mask></defs><mask><g id="SvgjsG1186"><svg viewBox="0 0 395.52 129.5266613967876" height="129.5266613967876" width="395.52"><g><svg viewBox="0 0 733.4458132904256 240.19212052730697" height="129.5266613967876" width="395.52"><g><rect width="15.673497328090395" height="208.56045197740113" x="281.2222182448211" y="15.81583427495292" fill="black" opacity="1" stroke-width="0" stroke="transparent" fill-opacity="1" class="rect-borderrectangle-0" rx="1%" id="SvgjsRect1185" data-palette-color="url(#485d0ab4-2977-4dc6-a23d-a4908fc31431)"></rect></g><g transform="matrix(1,0,0,1,337.9258132904256,33.19587193973635)"><svg viewBox="0 0 395.52000000000004 173.80037664783427" height="173.80037664783427" width="395.52000000000004"><g id="SvgjsG1184"><svg viewBox="0 0 395.52000000000004 173.80037664783427" height="173.80037664783427" width="395.52000000000004" id="SvgjsSvg1183"><g><svg viewBox="0 0 395.52000000000004 173.80037664783427" height="173.80037664783427" width="395.52000000000004"><g transform="matrix(1,0,0,1,0,0)"><svg width="395.52000000000004" viewBox="4.349999904632568 -34.95000076293945 79.6500015258789 35" height="173.80037664783427" data-palette-color="url(#485d0ab4-2977-4dc6-a23d-a4908fc31431)"><path d="M16.25-34.95L16.25-34.95Q20.25-34.95 22.7-34.08 25.15-33.2 26.28-31.05 27.4-28.9 27.4-25L27.4-25Q27.4-22.2 26.75-20.33 26.1-18.45 24.73-17.43 23.35-16.4 21.05-16.1L21.05-16.1 21.05-15.85Q21.9-15.65 22.73-15.03 23.55-14.4 24.25-13.38 24.95-12.35 25.3-10.9L25.3-10.9 28.65 0 23.95 0 20.9-10.8Q20.25-12.75 19.15-13.58 18.05-14.4 16.3-14.4L16.3-14.4Q13.25-14.4 11-14.43 8.75-14.45 7.25-14.5 5.75-14.55 4.85-14.55L4.85-14.55 5-18.2 16.15-18.2Q18.7-18.25 20.18-18.8 21.65-19.35 22.3-20.78 22.95-22.2 22.95-24.75L22.95-24.75Q22.95-27.3 22.3-28.68 21.65-30.05 20.18-30.6 18.7-31.15 16.15-31.15L16.15-31.15Q12.05-31.15 9.08-31.1 6.1-31.05 5.05-31.05L5.05-31.05 4.35-34.5Q6.25-34.7 7.9-34.8 9.55-34.9 11.53-34.93 13.5-34.95 16.25-34.95ZM4.35-34.5L8.7-34.5 8.7 0 4.35 0 4.35-34.5ZM42.65-34.5L47.05-34.5 47.05 0 42.65 0 42.65-34.5ZM31.55-34.5L58.2-34.5 58.2-30.6 31.55-30.6 31.55-34.5ZM63.65-34.5L68-34.5 68-7Q68-5.3 68.82-4.5 69.65-3.7 71.34-3.7L71.34-3.7 83.8-3.7 84-0.3Q80.75-0.05 77.37 0 74 0.05 70.65 0.05L70.65 0.05Q66.84 0.05 65.25-1.8 63.65-3.65 63.65-6.45L63.65-6.45 63.65-34.5Z" opacity="1" transform="matrix(1,0,0,1,0,0)" fill="black" class="wordmark-text-0" id="SvgjsPath1182"></path></svg></g></svg></g></svg></g></svg></g><g><svg viewBox="0 0 240.19212052730697 240.19212052730697" height="240.19212052730697" width="240.19212052730697"><g><svg xmlns="http://www.w3.org/2000/svg" xmlns:xlink="http://www.w3.org/1999/xlink" version="1.1" x="0" y="0" viewBox="5 5 90 90" enable-background="new 0 0 100 100" xml:space="preserve" height="240.19212052730697" width="240.19212052730697" class="icon-icon-0" data-fill-palette-color="accent" id="SvgjsSvg1181"><path fill="black" d="M95 52c0-12.871-5.692-24.431-14.682-32.318C72.431 10.692 60.871 5 48 5 24.29 5 5 24.29 5 48c0 12.868 5.69 24.426 14.677 32.313C27.564 89.306 39.126 95 52 95c0.084 0 0.166-0.006 0.25-0.006S52.416 95 52.5 95C75.972 95 95 75.972 95 52.5c0-0.084-0.006-0.166-0.006-0.25S95 52.084 95 52zM21.828 73.371c-4.245-5.978-6.77-13.259-6.822-21.121 0.135-20.511 16.732-37.109 37.244-37.244 7.862 0.052 15.144 2.577 21.121 6.822C80.224 28.473 84.5 37.758 84.5 48c0 20.126-16.374 36.5-36.5 36.5C37.758 84.5 28.473 80.224 21.828 73.371zM6 48C6 24.841 24.841 6 48 6c9.858 0 18.926 3.422 26.1 9.13C67.637 11.242 60.076 9 52 9 28.29 9 9 28.29 9 52c0 8.074 2.241 15.633 6.127 22.095C9.421 66.923 6 57.856 6 48zM52 89c-10.08 0-19.227-4.055-25.905-10.615C32.269 82.854 39.838 85.5 48 85.5c20.678 0 37.5-16.822 37.5-37.5 0-8.162-2.646-15.731-7.115-21.905C84.945 32.773 89 41.92 89 52 89 72.402 72.402 89 52 89z"></path></svg></g></svg></g></svg></g><defs><mask></mask></defs></svg><rect width="395.52" height="129.5266613967876" fill="black" stroke="none" visibility="hidden"></rect></g></mask></svg><rect width="395.52" height="129.5266613967876" fill="black" stroke="none" visibility="hidden"></rect></g></mask><linearGradient x1="0" x2="1" y1="0.548" y2="0.55" id="70798d2a-bfc6-408f-bd75-7b91a0bd518b"><stop stop-color="#ff6cab" offset="0"></stop><stop stop-color="#7366ff" offset="1"></stop></linearGradient><rect width="395.5199890136719" height="129.5266571044922" fill="url(#70798d2a-bfc6-408f-bd75-7b91a0bd518b)" mask="url(#235ec3ef-7502-420a-9055-168f4d875b82)" data-fill-palette-color="accent"></rect></svg><rect width="395.52" height="129.5266613967876" fill="none" stroke="none" visibility="hidden"></rect></g></svg>